<?xml version="1.0" standalone="no"?>
<!DOCTYPE svg PUBLIC "-//W3C//DTD SVG 20010904//EN"
 "http://www.w3.org/TR/2001/REC-SVG-20010904/DTD/svg10.dtd">
<svg version="1.0" xmlns="http://www.w3.org/2000/svg"
 width="200.000000pt" height="200.000000pt" viewBox="0 0 200.000000 200.000000"
 preserveAspectRatio="xMidYMid meet">
<metadata>
Created by potrace 1.14, written by Peter Selinger 2001-2017
</metadata>
<g transform="translate(0.000000,200.000000) scale(0.100000,-0.100000)"
fill="#000000" stroke="none">
<path d="M0 1000 l0 -1000 1000 0 1000 0 0 1000 0 1000 -1000 0 -1000 0 0
-1000z m1222 130 c194 -104 356 -196 360 -202 10 -17 -64 -324 -77 -321 -6 1
-27 59 -47 129 -21 70 -39 129 -41 130 -2 2 -103 -23 -226 -54 l-222 -58 -50
-77 c-27 -42 -53 -77 -59 -77 -6 0 -10 29 -10 69 l0 69 -87 112 -88 112 -45
-6 c-25 -3 -59 -8 -75 -11 -28 -6 -32 -3 -48 29 l-17 36 34 48 c18 26 36 54
39 63 6 19 0 23 -141 70 -56 18 -101 38 -99 44 2 6 58 10 142 10 l139 0 9 -37
c5 -21 13 -38 18 -38 5 0 55 34 112 75 56 41 107 75 114 75 6 0 170 -85 365
-190z"/>
<path d="M707 1201 c-65 -49 -121 -91 -123 -94 -7 -6 243 -320 259 -326 7 -3
8 51 4 170 -4 96 -7 211 -7 257 0 45 -3 82 -7 81 -5 0 -61 -40 -126 -88z"/>
<path d="M860 960 l1 -335 20 24 c22 27 177 273 185 295 4 11 -168 308 -197
341 -5 5 -9 -139 -9 -325z"/>
<path d="M890 1285 c0 -3 45 -78 100 -167 56 -89 99 -167 96 -173 -2 -7 -25
-45 -51 -85 -25 -39 -44 -74 -41 -77 4 -4 219 48 530 128 22 6 35 14 30 19 -7
7 -394 217 -641 349 -13 6 -23 9 -23 6z"/>
<path d="M395 1216 c68 -29 167 -58 175 -50 4 5 10 21 14 37 l6 27 -112 0
c-102 -1 -110 -2 -83 -14z"/>
<path d="M590 1176 c0 -8 -3 -22 -6 -30 -5 -12 -2 -15 10 -10 18 7 22 39 6 49
-5 3 -10 0 -10 -9z"/>
<path d="M547 1067 c-25 -39 -21 -46 21 -40 20 3 38 7 40 8 2 2 -8 15 -21 30
l-23 27 -17 -25z"/>
<path d="M522 985 c12 -28 32 -31 90 -15 26 8 35 15 31 25 -4 11 -22 15 -69
15 l-64 0 12 -25z"/>
<path d="M1503 891 c-40 -9 -63 -20 -63 -28 0 -18 49 -194 60 -212 5 -9 19 35
39 119 17 73 30 134 29 135 -2 1 -31 -5 -65 -14z"/>
</g>
</svg>
